HIERARCHY
ROOT Hips
{
	OFFSET -0.001795 -0.223333 0.028219
	CHANNELS 6 Xposition Yposition Zposition Zrotation Yrotation Xrotation 
	JOINT LeftUpLeg
	{
		OFFSET 0.069520 -0.091406 -0.006815
		CHANNELS 3 Zrotation Yrotation Xrotation
		JOINT LeftLeg
		{
			OFFSET 0.034277 -0.375199 -0.004496
			CHANNELS 3 Zrotation Yrotation Xrotation
			JOINT LeftFoot
			{
				OFFSET -0.013596 -0.397961 -0.043693
				CHANNELS 3 Zrotation Yrotation Xrotation
				JOINT LeftToe
				{
					OFFSET 0.026358 -0.055791 0.119288
					CHANNELS 3 Zrotation Yrotation Xrotation
					End Site
					{
						OFFSET 0.000000 0.000000 0.000000
					}
				}
			}
		}
	}
	JOINT RightUpLeg
	{
		OFFSET -0.067670 -0.090522 -0.004320
		CHANNELS 3 Zrotation Yrotation Xrotation
		JOINT RightLeg
		{
			OFFSET -0.038290 -0.382569 -0.008850
			CHANNELS 3 Zrotation Yrotation Xrotation
			JOINT RightFoot
			{
				OFFSET 0.015774 -0.398415 -0.042312
				CHANNELS 3 Zrotation Yrotation Xrotation
				JOINT RightToe
				{
					OFFSET -0.025372 -0.048144 0.123348
					CHANNELS 3 Zrotation Yrotation Xrotation
					End Site
					{
						OFFSET 0.000000 0.000000 0.000000
					}
				}
			}
		}
	}
	JOINT Spine
	{
		OFFSET -0.002533 0.108963 -0.026696
		CHANNELS 3 Zrotation Yrotation Xrotation
		JOINT Spine1
		{
			OFFSET 0.005487 0.135180 0.001092
			CHANNELS 3 Zrotation Yrotation Xrotation
			JOINT Spine2
			{
				OFFSET 0.001457 0.052922 0.025425
				CHANNELS 3 Zrotation Yrotation Xrotation
				JOINT Neck
				{
					OFFSET -0.002778 0.213870 -0.042857
					CHANNELS 3 Zrotation Yrotation Xrotation
					JOINT Head
					{
						OFFSET 0.005152 0.064970 0.051349
						CHANNELS 3 Zrotation Yrotation Xrotation
						End Site
						{
							OFFSET 0.000000 0.000000 0.000000
						}
					}
				}
				JOINT LeftShoulder
				{
					OFFSET 0.078845 0.121749 -0.034090
					CHANNELS 3 Zrotation Yrotation Xrotation
					JOINT LeftArm
					{
						OFFSET 0.090977 0.030469 -0.008868
						CHANNELS 3 Zrotation Yrotation Xrotation
						JOINT LeftForeArm
						{
							OFFSET 0.259612 -0.012772 -0.027456
							CHANNELS 3 Zrotation Yrotation Xrotation
							JOINT LeftHand
							{
								OFFSET 0.249234 0.008986 -0.001171
								CHANNELS 3 Zrotation Yrotation Xrotation
								End Site
								{
									OFFSET 0.000000 0.000000 0.000000
								}
							}
						}
					}
				}
				JOINT RightShoulder
				{
					OFFSET -0.081759 0.118833 -0.038615
					CHANNELS 3 Zrotation Yrotation Xrotation
					JOINT RightArm
					{
						OFFSET -0.096012 0.032551 -0.009143
						CHANNELS 3 Zrotation Yrotation Xrotation
						JOINT RightForeArm
						{
							OFFSET -0.253742 -0.013329 -0.021401
							CHANNELS 3 Zrotation Yrotation Xrotation
							JOINT RightHand
							{
								OFFSET -0.255298 0.007772 -0.005559
								CHANNELS 3 Zrotation Yrotation Xrotation
								End Site
								{
									OFFSET 0.000000 0.000000 0.000000
								}
							}
						}
					}
				}
			}
		}
	}
}
MOTION
Frames: 9
Frame Time: 0.050000
-0.659947 0.947500 1.030039 -1.970720 -10.741509 0.414612 2.923230 0.224682 2.603206 -0.471944 0.095586 -1.264845 3.763962 9.483412 10.373422 0.000000 0.000000 0.000000 3.085183 0.071333 -1.594910 -5.975862 0.570804 0.212486 2.610830 0.112443 8.959448 0.000000 0.000000 0.000000 5.057410 -0.127814 1.144807 -1.921621 0.907837 -0.573724 -5.406290 9.754744 3.527123 11.324779 -5.183447 -16.282078 0.000000 0.000000 0.000000 -18.194255 -5.135988 -0.406945 -51.826819 -4.243035 -4.063127 -12.198076 -27.415344 3.648466 0.000000 0.000000 0.000000 19.528138 -3.307587 -2.346654 61.926702 1.611301 -5.186643 7.382473 26.299301 2.808825 0.000000 0.000000 0.000000 
-0.659824 0.947869 1.030298 -2.053455 -11.201717 0.658057 2.924355 0.218802 2.503818 -0.433375 0.094799 -1.391819 3.974598 9.828867 10.601315 0.000000 0.000000 0.000000 3.028560 0.076284 -1.663490 -5.784302 0.510697 -0.178857 2.898350 0.498033 9.202325 0.000000 0.000000 0.000000 5.150268 -0.135468 1.186582 -1.908428 0.904154 -0.490524 -5.450564 9.678285 3.286610 11.546377 -5.304421 -16.429517 0.000000 0.000000 0.000000 -17.991704 -5.151550 -0.311551 -51.667745 -4.786228 -3.811073 -12.188351 -27.723306 3.702104 0.000000 0.000000 0.000000 19.101789 -3.502485 -2.502837 61.870160 1.046919 -5.429008 7.789694 26.190175 2.862612 0.000000 0.000000 0.000000 
-0.659646 0.948381 1.030566 -2.183519 -11.752202 0.899965 2.906604 0.210809 2.367050 -0.299022 0.079328 -1.406781 4.241036 10.256669 10.860594 0.000000 0.000000 0.000000 3.047198 0.087908 -1.803708 -5.648963 0.469403 -0.436410 3.233753 0.938033 9.484255 0.000000 0.000000 0.000000 5.224439 -0.149493 1.305301 -1.869912 0.881368 -0.612378 -5.384474 9.727921 3.196166 11.678495 -5.344219 -16.712230 0.000000 0.000000 0.000000 -17.688180 -5.162506 -0.208386 -51.685804 -5.350679 -3.586404 -12.119409 -28.203056 3.766721 0.000000 0.000000 0.000000 18.866042 -3.696730 -2.657245 61.561643 0.758295 -5.536080 8.077078 25.658011 2.836944 0.000000 0.000000 0.000000 
-0.659417 0.948784 1.030888 -2.368676 -12.395338 1.318564 2.811651 0.188928 2.063392 0.039856 0.038844 -1.413281 4.587584 10.801627 11.108599 0.000000 0.000000 0.000000 3.252892 0.119707 -2.157823 -5.759537 0.454799 -0.642772 3.602381 1.427007 9.760058 0.000000 0.000000 0.000000 5.430806 -0.158735 1.316629 -1.937327 0.908016 -0.750332 -5.203675 9.790960 3.036735 11.543098 -5.215694 -17.015968 0.000000 0.000000 0.000000 -17.142923 -4.733497 -0.291669 -52.148456 -5.656451 -3.509809 -12.440871 -28.585764 3.917671 0.000000 0.000000 0.000000 17.993088 -3.881868 -2.764807 61.868687 0.297584 -5.746450 8.697560 25.558849 2.934516 0.000000 0.000000 0.000000 
-0.659231 0.949190 1.031346 -2.479977 -12.665642 1.586372 2.784287 0.170997 1.838693 0.202132 0.018023 -1.375816 4.734917 11.033235 11.281243 0.000000 0.000000 0.000000 3.298607 0.135465 -2.324539 -5.687746 0.428606 -0.829666 3.793268 1.630769 9.987282 0.000000 0.000000 0.000000 5.539662 -0.171134 1.396057 -1.818853 0.845557 -0.931766 -5.199617 9.938107 2.993419 11.549047 -5.190841 -17.140192 0.000000 0.000000 0.000000 -16.927646 -4.692500 -0.286152 -52.220392 -5.774416 -3.466823 -13.013797 -29.138279 4.141130 0.000000 0.000000 0.000000 17.890565 -4.130736 -2.892529 61.659080 0.052801 -5.845809 8.880687 25.453642 2.958826 0.000000 0.000000 0.000000 
-0.659105 0.949431 1.031853 -2.502067 -12.830364 1.848833 2.864178 0.151991 1.612459 0.035323 0.038299 -1.382458 4.808659 11.147085 11.404597 0.000000 0.000000 0.000000 3.252277 0.152790 -2.485687 -5.608231 0.402204 -1.025135 3.912132 1.753863 10.134636 0.000000 0.000000 0.000000 5.670571 -0.182290 1.448838 -1.828781 0.841384 -1.183910 -5.130575 9.880540 3.201601 11.558258 -5.092183 -17.741375 0.000000 0.000000 0.000000 -16.769608 -4.622519 -0.252312 -52.367753 -5.833084 -3.483215 -13.437919 -29.470016 4.318847 0.000000 0.000000 0.000000 17.570291 -4.192457 -2.934271 61.705312 -0.202402 -5.989777 9.059708 25.608469 3.009564 0.000000 0.000000 0.000000 
-0.659067 0.949682 1.032475 -2.568590 -12.834346 2.071391 2.903926 0.148826 1.596552 0.068068 0.044257 -1.691700 4.798028 11.134227 11.532820 0.000000 0.000000 0.000000 3.255690 0.150459 -2.484847 -5.509757 0.362806 -1.371015 3.978124 1.761228 10.327138 0.000000 0.000000 0.000000 5.715876 -0.184942 1.424871 -1.787595 0.817668 -1.306809 -5.041935 9.909688 3.350283 11.562102 -5.019606 -18.130226 0.000000 0.000000 0.000000 -16.765807 -4.631165 -0.237316 -52.372619 -5.851156 -3.491684 -13.966396 -29.907619 4.530675 0.000000 0.000000 0.000000 17.494986 -4.230143 -2.948302 61.749613 -0.373689 -6.092264 9.230827 25.740622 3.064787 0.000000 0.000000 0.000000 
-0.659098 0.949855 1.033165 -2.592786 -12.644375 2.453465 2.893246 0.123830 1.337200 0.153336 0.042761 -1.941789 4.713424 11.006916 11.615306 0.000000 0.000000 0.000000 3.234964 0.159181 -2.573165 -5.424744 0.315558 -1.846052 3.956346 1.613786 10.528604 0.000000 0.000000 0.000000 5.838425 -0.178526 1.249713 -1.906397 0.877104 -1.216963 -4.955080 9.738012 3.330243 11.558842 -4.879682 -18.806506 0.000000 0.000000 0.000000 -16.668717 -4.563128 -0.240801 -52.599484 -5.973717 -3.455273 -14.507613 -30.341844 4.751279 0.000000 0.000000 0.000000 17.190203 -4.367961 -3.013186 61.964036 -0.324691 -6.066412 9.601832 25.698450 3.133354 0.000000 0.000000 0.000000 
-0.659257 0.950009 1.033929 -2.642597 -12.437806 2.495065 3.031621 0.126664 1.398271 0.050101 0.059214 -2.075890 4.595761 10.828944 11.622775 0.000000 0.000000 0.000000 3.187057 0.140286 -2.407027 -5.222602 0.281544 -2.079805 3.900480 1.469195 10.626948 0.000000 0.000000 0.000000 5.954072 -0.181614 1.251891 -1.935386 0.888328 -1.303639 -4.992196 9.779761 3.530248 11.595724 -4.826373 -19.137010 0.000000 0.000000 0.000000 -16.674440 -4.641235 -0.227288 -52.486633 -5.992444 -3.451354 -14.731184 -30.628736 4.850751 0.000000 0.000000 0.000000 17.039940 -4.386732 -2.976362 62.274094 -0.234478 -6.056115 9.528118 25.806168 3.144349 0.000000 0.000000 0.000000 
